<svg xmlns="http://www.w3.org/2000/svg" width="1600" height="1000" viewBox="0 0 1600 1000" role="img" aria-label="DeepBook Risk Console">
  <defs>
    <linearGradient id="bg" x1="0" y1="0" x2="1" y2="1">
      <stop offset="0%" stop-color="#fff5df"/>
      <stop offset="52%" stop-color="#eaf0ff"/>
      <stop offset="100%" stop-color="#ffffff"/>
    </linearGradient>
    <linearGradient id="panel" x1="0" y1="0" x2="1" y2="1">
      <stop offset="0%" stop-color="rgba(255,255,255,0.92)"/>
      <stop offset="100%" stop-color="rgba(255,255,255,0.72)"/>
    </linearGradient>
    <filter id="shadow" x="-20%" y="-20%" width="140%" height="140%">
      <feDropShadow dx="0" dy="28" stdDeviation="34" flood-color="#0f1726" flood-opacity="0.22"/>
    </filter>
  </defs>
  <rect width="1600" height="1000" fill="url(#bg)"/>
  <path d="M1220 110 C1440 160 1530 360 1430 540 C1330 720 1110 740 980 610 C850 480 860 250 1020 150 C1080 110 1140 94 1220 110Z" fill="#8b5cf6" opacity="0.2"/>
  <path d="M160 800 C270 650 430 650 540 775 C650 900 830 890 920 760" fill="none" stroke="#ffffff" stroke-width="4" opacity="0.32"/>
  <g filter="url(#shadow)">
    <rect x="100" y="104" width="620" height="792" rx="42" fill="rgba(255,255,255,0.9)"/>
    <rect x="140" y="150" width="128" height="128" rx="34" fill="#8b5cf6"/>
    <path stroke="#ffffff" stroke-width="12" stroke-linecap="round" stroke-linejoin="round" fill="none" d="M170 184h78v92h-78zM190 208h38M190 232h38M190 256h24"/>
    <text x="140" y="340" fill="#10151f" font-size="66" font-weight="800" font-family="Inter, Arial, sans-serif">DeepBook Risk Console</text>
    <text x="140" y="398" fill="#8b5cf6" font-size="27" font-weight="800" font-family="Inter, Arial, sans-serif">DeepBook</text>
    <text x="140" y="490" fill="#465467" font-size="31" font-weight="500" font-family="Inter, Arial, sans-serif">A wallet-connected DeepBookV3 risk console that turns</text>
    <text x="140" y="532" fill="#465467" font-size="31" font-weight="500" font-family="Inter, Arial, sans-serif">price predictions and LP guardrails into tiny guarded</text>
    <text x="140" y="574" fill="#465467" font-size="31" font-weight="500" font-family="Inter, Arial, sans-serif">testnet maker orders with on-chain receipts.</text>
    <rect x="140" y="748" width="500" height="72" rx="22" fill="#10151f"/>
    <text x="174" y="795" fill="#ffffff" font-size="26" font-weight="800" font-family="Inter, Arial, sans-serif">Sui Overflow 2026 Demo</text>
  </g>
  <g filter="url(#shadow)">
    <rect x="820" y="150" width="650" height="700" rx="48" fill="rgba(16,21,31,0.82)"/>
    <rect x="880" y="210" width="530" height="90" rx="26" fill="rgba(255,255,255,0.1)" stroke="rgba(255,255,255,0.22)"/>
    <text x="914" y="267" fill="#ffffff" font-size="28" font-weight="800" font-family="Inter, Arial, sans-serif">Risk decision</text>
    <text x="1230" y="267" fill="#d6c4ff" font-size="32" font-weight="900" font-family="Inter, Arial, sans-serif" text-anchor="end">PASS</text>
    
    <g transform="translate(880 350)">
      <circle cx="32" cy="32" r="32" fill="#8b5cf6"/>
      <text x="32" y="42" fill="#ffffff" font-size="24" font-weight="900" font-family="Inter, Arial, sans-serif" text-anchor="middle">1</text>
      <text x="88" y="42" fill="#ffffff" font-size="27" font-weight="650" font-family="Inter, Arial, sans-serif">Connect a testnet wallet</text>
    </g>
    <g transform="translate(880 450)">
      <circle cx="32" cy="32" r="32" fill="#8b5cf6"/>
      <text x="32" y="42" fill="#ffffff" font-size="24" font-weight="900" font-family="Inter, Arial, sans-serif" text-anchor="middle">2</text>
      <text x="88" y="42" fill="#ffffff" font-size="27" font-weight="650" font-family="Inter, Arial, sans-serif">Load SUI/DBUSDC risk inputs</text>
    </g>
    <g transform="translate(880 550)">
      <circle cx="32" cy="32" r="32" fill="#8b5cf6"/>
      <text x="32" y="42" fill="#ffffff" font-size="24" font-weight="900" font-family="Inter, Arial, sans-serif" text-anchor="middle">3</text>
      <text x="88" y="42" fill="#ffffff" font-size="27" font-weight="650" font-family="Inter, Arial, sans-serif">Create a guard policy</text>
    </g>
    <g transform="translate(880 650)">
      <circle cx="32" cy="32" r="32" fill="#8b5cf6"/>
      <text x="32" y="42" fill="#ffffff" font-size="24" font-weight="900" font-family="Inter, Arial, sans-serif" text-anchor="middle">4</text>
      <text x="88" y="42" fill="#ffffff" font-size="27" font-weight="650" font-family="Inter, Arial, sans-serif">Place and cancel a tiny guarded ma…</text>
    </g>
  </g>
</svg>
